<?xml version="1.0" standalone="no"?>
<!DOCTYPE svg PUBLIC "-//W3C//DTD SVG 20010904//EN"
 "http://www.w3.org/TR/2001/REC-SVG-20010904/DTD/svg10.dtd">
<svg version="1.0" xmlns="http://www.w3.org/2000/svg"
 width="16.000000pt" height="16.000000pt" viewBox="0 0 16.000000 16.000000"
 preserveAspectRatio="xMidYMid meet">
<metadata>
Created by potrace 1.11, written by Peter Selinger 2001-2013
</metadata>
<g transform="translate(0.000000,16.000000) scale(0.006250,-0.006250)"
fill="#000000" stroke="none">
<path d="M1040 2153 c-244 -35 -429 -150 -553 -345 -80 -125 -113 -226 -162
-503 -6 -35 -7 -42 -37 -200 -29 -158 -32 -384 -5 -460 60 -168 190 -270 383
-301 65 -10 257 -11 317 -1 137 22 277 112 368 237 l26 34 19 -59 c34 -111
134 -186 284 -215 78 -15 247 -5 320 18 72 24 187 88 200 112 4 8 11 104 15
212 l7 197 -29 -14 c-47 -23 -145 -29 -180 -11 -57 29 -57 57 1 366 3 14 9 50
15 80 6 30 13 70 16 88 7 47 75 429 89 507 13 70 26 145 31 178 l6 37 -274 0
-274 0 -7 -50 -7 -51 -42 34 c-96 78 -196 107 -376 111 -70 1 -137 1 -151 -1z
m358 -537 c52 -27 64 -54 52 -117 -6 -30 -13 -70 -16 -89 -3 -19 -23 -131 -44
-249 -37 -205 -40 -214 -70 -241 -55 -49 -120 -70 -213 -66 -87 3 -125 16
-164 58 -30 31 -50 86 -48 125 3 37 15 130 20 153 4 13 11 52 30 160 27 156
87 237 200 273 87 28 191 25 253 -7z"/>
</g>
</svg>
